<svg xmlns="http://www.w3.org/2000/svg" width="800" height="600" viewBox="0 0 800 600">
  <g id="anchors">
    <path id="from" d="M451.1,505.4"/>
    <path id="to" d="M293.2,77.9"/>
  </g>

  <g>
     <circle cx="293.2" cy="77.9" r="10" fill="blue" />
     <circle cx="451.1" cy="505.4" r="10" fill="red" />
  </g>
  <g>
    <path d="M156.7 196.3l-20.4-6.4 2.3-7.4 49.8 15.6-2.3 7.4-20.5-6.4-18.8 59.8-8.8-2.8 18.7-59.8z"/>
    <path d="M204.5 203.2l-8.8 28.1 32.5 10.2 8.8-28.1 8.8 2.8-21.1 67.2-8.8-2.8 9.9-31.5-32.5-10.2-9.9 31.5-8.7-2.7 21.1-67.2 8.7 2.7z"/>
    <path d="M269.5 223.6l-21.1 67.2-8.7-2.7 21.1-67.2 8.7 2.7z"/>
    <path d="M265.7 284.6c3.1 3.6 8.2 7.4 14.2 9.3 8.9 2.8 15.5-.3 17.7-7.1 2-6.3-.5-11-8.5-17.3-9.7-7.3-14.7-15.1-11.8-24.6 3.3-10.5 14.4-15.5 27.5-11.4 6.9 2.2 11.4 5.3 13.8 8l-4.6 6.3c-1.8-1.9-5.7-5.3-11.8-7.2-9.2-2.9-14.4 1.5-15.8 6.1-2 6.3 1.1 10.7 9.3 17.2 10 8 14.1 15.3 11 25.1-3.3 10.4-13.7 16.9-29.6 12-6.5-2-13-6.2-15.8-9.7l4.4-6.7z"/>
    <path d="M363.7 253.1l-21.1 67.2-8.7-2.7 21.1-67.2 8.7 2.7z"/>
    <path d="M359.9 314.1c3.1 3.6 8.2 7.4 14.2 9.3 8.9 2.8 15.5-.3 17.7-7.1 2-6.3-.5-11-8.5-17.3-9.7-7.3-14.7-15.1-11.8-24.6 3.3-10.5 14.4-15.5 27.5-11.4 6.9 2.2 11.4 5.3 13.8 8l-4.6 6.3c-1.8-1.9-5.7-5.3-11.8-7.2-9.2-2.9-14.4 1.5-15.8 6.1-2 6.3 1.1 10.7 9.3 17.2 10 8 14.1 15.3 11 25.1-3.3 10.4-13.7 16.9-29.6 12-6.5-2-13-6.2-15.8-9.7l4.4-6.7z"/>
    <path d="M445.6 329.4L432 348.3l-9-2.8 43.9-60 10.5 3.3 1.8 74.4-9.3-2.9-.5-23.4-23.8-7.5zm24.1.1l-.5-21.4c-.1-4.9.1-9.2.4-13.4l-.2-.1c-2.2 3.7-4.6 7.4-7.2 11.1l-12.7 17.4 20.2 6.4z"/>
    <path d="M576.1 361.2c2.4-9.5 5.4-21 8.1-29.3l-.3-.1c-4.8 7.2-10.2 14.7-16.5 22.9l-22.1 28.9-6.6-2.1-.8-35.4c-.2-10.5-.2-20 .4-28.6l-.2-.1c-2.8 8.3-6.9 19.4-10.6 29.3L516.7 375l-8.3-2.6 25.8-65.7 11.1 3.5 1.3 36.1c.2 9.2.2 17.3-.3 24.8l.3.1c3.8-6.2 8.5-12.9 14.2-20.4L583 322l11.1 3.5-17.1 68.4-8.5-2.7 7.6-30z"/>
    <path d="M606.9 380l-13.6 19-9-2.8 43.9-60 10.5 3.3 1.8 74.4-9.3-2.9-.5-23.4-23.8-7.6zm24.2.2l-.5-21.4c-.1-4.9.1-9.2.4-13.4l-.2-.1c-2.2 3.7-4.6 7.4-7.2 11.1l-12.7 17.4 20.2 6.4z"/>
    <path d="M671.3 350.5c4.4.6 10.1 1.7 17.1 3.9 8.6 2.7 14.2 6.7 17.1 11.5 2.7 4.3 3.3 9.9 1.5 15.9-1.9 6.1-5.2 10.3-9.7 12.7-6.1 3.4-14.4 3.6-22.9.9-2.6-.8-5-1.7-6.8-2.8l-8.4 26.9-8.7-2.7 20.8-66.3zm-1.5 35.1c1.7 1.1 4.1 2 7 3 10.5 3.3 18.4.2 21.4-9.1 2.8-8.9-2.2-15.1-11.7-18.1-3.8-1.2-6.8-1.8-8.4-1.9l-8.3 26.1z"/>
  </g>
</svg>
